HIERARCHY
ROOT hip
{
  OFFSET 0 0 0
  CHANNELS 6 Xposition Yposition Zposition Zrotation Yrotation Xrotation
  JOINT abdomen
  {
    OFFSET 0 20.6881 -0.73152
    CHANNELS 3 Zrotation Xrotation Yrotation
    JOINT chest
    {
      OFFSET 0 11.7043 -0.48768
      CHANNELS 3 Zrotation Xrotation Yrotation
      JOINT neck
      {
        OFFSET 0 22.1894 -2.19456
        CHANNELS 3 Zrotation Xrotation Yrotation
        JOINT head
        {
          OFFSET -0.24384 7.07133 1.2192
          CHANNELS 3 Zrotation Xrotation Yrotation
          JOINT leftEye
          {
            OFFSET 4.14528 8.04674 8.04672
            CHANNELS 3 Zrotation Xrotation Yrotation
            End Site
            {
              OFFSET 1 0 0
            }
          }
          JOINT rightEye
          {
            OFFSET -3.6576 8.04674 8.04672
            CHANNELS 3 Zrotation Xrotation Yrotation
            End Site
            {
              OFFSET 1 0 0
            }
          }
        }
      }
      JOINT rCollar
      {
        OFFSET -2.68224 19.2634 -4.8768
        CHANNELS 3 Zrotation Xrotation Yrotation
        JOINT rShldr
        {
          OFFSET -8.77824 -1.95073 1.46304
          CHANNELS 3 Zrotation Xrotation Yrotation
          JOINT rForeArm
          {
            OFFSET -28.1742 -1.7115 0.48768
            CHANNELS 3 Zrotation Xrotation Yrotation
            JOINT rHand
            {
              OFFSET -22.5879 0.773209 7.07136
              CHANNELS 3 Zrotation Xrotation Yrotation
              JOINT rThumb1
              {
                OFFSET -1.2192 -0.487915 3.41376
                CHANNELS 3 Zrotation Xrotation Yrotation
                JOINT rThumb2
                {
                  OFFSET -3.37035 -0.52449 3.41376
                  CHANNELS 3 Zrotation Xrotation Yrotation
                  End Site
                  {
                    OFFSET -1.78271 -1.18214 1.43049
                  }
                }
              }
              JOINT rIndex1
              {
                OFFSET -7.75947 0.938293 5.60832
                CHANNELS 3 Zrotation Xrotation Yrotation
                JOINT rIndex2
                {
                  OFFSET -2.54057 -0.884171 1.56538
                  CHANNELS 3 Zrotation Xrotation Yrotation
                  End Site
                  {
                    OFFSET -1.62519 -0.234802 1.16502
                  }
                }
              }
              JOINT rMid1
              {
                OFFSET -8.24714 1.18213 3.41376
                CHANNELS 3 Zrotation Xrotation Yrotation
                JOINT rMid2
                {
                  OFFSET -3.10165 -0.590103 1.0647
                  CHANNELS 3 Zrotation Xrotation Yrotation
                  End Site
                  {
                    OFFSET -2.48547 -0.328903 0.83742
                  }
                }
              }
              JOINT rRing1
              {
                OFFSET -8.82822 0.546677 1.51678
                CHANNELS 3 Zrotation Xrotation Yrotation
                JOINT rRing2
                {
                  OFFSET -2.60934 -0.819778 -0.0198488
                  CHANNELS 3 Zrotation Xrotation Yrotation
                  End Site
                  {
                    OFFSET -2.33842 -0.294052 0.168128
                  }
                }
              }
              JOINT rPinky1
              {
                OFFSET -8.27202 -0.0477905 -0.4584
                CHANNELS 3 Zrotation Xrotation Yrotation
                JOINT rPinky2
                {
                  OFFSET -1.82734 -0.647385 -0.700984
                  CHANNELS 3 Zrotation Xrotation Yrotation
                  End Site
                  {
                    OFFSET -1.69225 -0.51767 -0.607171
                  }
                }
              }
            }
          }
        }
      }
      JOINT lCollar
      {
        OFFSET 2.68224 19.2634 -4.8768
        CHANNELS 3 Zrotation Xrotation Yrotation
        JOINT lShldr
        {
          OFFSET 8.77824 -1.95073 1.46304
          CHANNELS 3 Zrotation Xrotation Yrotation
          JOINT lForeArm
          {
            OFFSET 28.1742 -1.7115 0.48768
            CHANNELS 3 Zrotation Xrotation Yrotation
            JOINT lHand
            {
              OFFSET 22.5879 0.773209 7.07136
              CHANNELS 3 Zrotation Xrotation Yrotation
              JOINT lThumb1
              {
                OFFSET 1.2192 -0.487915 3.41376
                CHANNELS 3 Zrotation Xrotation Yrotation
                JOINT lThumb2
                {
                  OFFSET 3.37035 -0.52449 3.41376
                  CHANNELS 3 Zrotation Xrotation Yrotation
                  End Site
                  {
                    OFFSET 1.78271 -1.18214 1.43049
                  }
                }
              }
              JOINT lIndex1
              {
                OFFSET 7.75947 0.938293 5.60832
                CHANNELS 3 Zrotation Xrotation Yrotation
                JOINT lIndex2
                {
                  OFFSET 2.54057 -0.884171 1.56538
                  CHANNELS 3 Zrotation Xrotation Yrotation
                  End Site
                  {
                    OFFSET 1.62519 -0.234802 1.16502
                  }
                }
              }
              JOINT lMid1
              {
                OFFSET 8.24714 1.18213 3.41376
                CHANNELS 3 Zrotation Xrotation Yrotation
                JOINT lMid2
                {
                  OFFSET 3.10165 -0.590103 1.0647
                  CHANNELS 3 Zrotation Xrotation Yrotation
                  End Site
                  {
                    OFFSET 2.48547 -0.328903 0.83742
                  }
                }
              }
              JOINT lRing1
              {
                OFFSET 8.82822 0.546677 1.51678
                CHANNELS 3 Zrotation Xrotation Yrotation
                JOINT lRing2
                {
                  OFFSET 2.60934 -0.819778 -0.0198488
                  CHANNELS 3 Zrotation Xrotation Yrotation
                  End Site
                  {
                    OFFSET 2.33842 -0.294052 0.168128
                  }
                }
              }
              JOINT lPinky1
              {
                OFFSET 8.27202 -0.0477905 -0.4584
                CHANNELS 3 Zrotation Xrotation Yrotation
                JOINT lPinky2
                {
                  OFFSET 1.82734 -0.647385 -0.700984
                  CHANNELS 3 Zrotation Xrotation Yrotation
                  End Site
                  {
                    OFFSET 1.69225 -0.51767 -0.607171
                  }
                }
              }
            }
          }
        }
      }
    }
  }
  JOINT rButtock
  {
    OFFSET -8.77824 4.35084 1.2192
    CHANNELS 3 Zrotation Xrotation Yrotation
    JOINT rThigh
    {
      OFFSET 0 -1.70687 -2.19456
      CHANNELS 3 Zrotation Xrotation Yrotation
      JOINT rShin
      {
        OFFSET 0 -36.8199 0.73152
        CHANNELS 3 Zrotation Xrotation Yrotation
        JOINT rFoot
        {
          OFFSET 0.73152 -45.1104 -5.12064
          CHANNELS 3 Zrotation Xrotation Yrotation
          End Site
          {
            OFFSET -1.1221 -3.69964 12.103
          }
        }
      }
    }
  }
  JOINT lButtock
  {
    OFFSET 8.77824 4.35084 1.2192
    CHANNELS 3 Zrotation Xrotation Yrotation
    JOINT lThigh
    {
      OFFSET 0 -1.70687 -2.19456
      CHANNELS 3 Zrotation Xrotation Yrotation
      JOINT lShin
      {
        OFFSET 0 -36.8199 0.73152
        CHANNELS 3 Zrotation Xrotation Yrotation
        JOINT lFoot
        {
          OFFSET -0.73152 -45.1104 -5.12064
          CHANNELS 3 Zrotation Xrotation Yrotation
          End Site
          {
            OFFSET 1.1221 -3.69964 12.103
          }
        }
      }
    }
  }
}
MOTION
Frames:	4
Frame Time:	0.03333
0.03916453570127487 61.81463003158569 -0.0012573087587952614 -6.444138340387168 5.236504972955084 2.513781328027612 -2.3501509129684397 14.762871617355819 3.8962737280709576 2.5929910318322498 -9.713337523401131 1.2265869289354576 -4.858295200496675 15.28894644760854 -3.4845129991923884 8.45926954178354 -24.926529489151413 -5.169026545936766 0.011833062613209083 0.017548516885908153 -0.0034533676567422475 -0.0038123127739249293 -0.014342490122527635 0.0181871128928779 0.05872369864752178 -0.06480515501019833 0.027004183415116862 49.29057923977394 30.1332817311951 15.789703474155317 -23.872651790785955 -29.474984683894686 66.45797285065585 -4.720541810881743 -11.25577438422937 -5.136417088405009 0.0030371930248342636 -0.03744229661721654 0.022831268002516333 0.026680106280244965 -0.0003333986088612474 -0.019114231031427793 -0.07170567378432105 0.018817384606796692 0.0190359506602371 7.68554229750991 5.431118406749904 0.41457850207631664 0.023785813619452062 -0.0044310585436193265 -0.002339339790729367 2.9135604109980977 0.9613275678947268 0.08208441303241988 -0.03728920433027305 -0.00903415247695835 0.02663869825840176 10.215808073655937 0.7035563353401514 0.03582204768004258 -0.02515617368253876 0.02142854458215141 -0.008249881341596925 2.16051135099327 -0.7364521805693724 -0.2145912835498573 -0.00802675293523436 -0.0038590035202043134 -0.0037598056946804566 -58.42735744344584 32.160898518394255 -25.671598967214962 23.00754344560673 -27.443421754902555 -62.422779051282355 5.091694717267059 -13.622591172216053 4.107881099407592 -0.006561037028031936 0.027797856065746973 -0.008436297481170672 -0.025434770695481234 -0.008339687657012014 -0.008879992972957046 -0.015428650283118335 0.006077561020415526 -0.007164815078490485 -7.698537586179506 5.482058384466682 -0.4276979347701624 0.01507625521062799 -0.04652890281256647 0.0001962078560791944 -2.8954849556898936 0.9478018723473975 -0.09539130240247078 0.0030274813496081517 -0.002572313274450271 -0.054938333104306666 -10.222689489244724 0.7071508291125764 -0.04379869477441255 -0.021042425450634127 -0.016605870739167056 -0.0215706978942523 -2.2398836986775192 -0.7234178317554609 0.18266236365544264 -0.042900044650879855 0.010354726864298003 0.005346117129415918 -31.80187303976712 -35.67812833715442 -27.743029710392456 -5.354948564012744 62.139749672455366 6.3186541049556935 -4.74780877982208 -10.183707038330523 -10.377074816375462 0.015633289153954264 0.03266313854976457 0.06664236917522598 37.717028596862434 -34.246295290877136 31.05573975974034 5.407680612613005 63.34321534383327 -6.5744481044672565 5.0123035865625925 -10.125345633193703 13.913745914834417
0.06120717152953148 62.78476119041443 -0.07894965820014477 -6.857898393701847 5.330380800455032 1.8863057228002922 -2.4529868814423863 14.883876956239057 3.8481580335759795 2.607520338300748 -9.786149901274406 1.1703487521351594 -4.967246963042133 15.428736514256606 -3.556130947734557 8.431637157722607 -24.908330450107915 -5.205606477810416 -0.015267447146535456 0.00877503217532099 -0.02963999276945379 -0.016804079627229653 0.043414603355305115 0.0014897282910032498 0.07664524791577576 -0.09854548909726796 0.05786142728544733 49.35419562170344 30.21057556693755 16.300019350445528 -24.0873604948926 -29.486616496051216 66.43997530219286 -4.871506920785595 -11.57185504845005 -5.316073261691147 0.03610694127362616 -0.12266310049999454 0.0549504726983393 0.04860485343342722 0.026553427615482385 -0.003429555376139762 -0.1083263733495791 0.05998752376781214 0.01293557787521079 7.838737464177773 5.463045699138305 0.3792619417557079 0.07608830735394205 -0.003476272802845591 -0.04265981409116581 2.9352846814269693 0.943388716369923 0.06142213029777928 -0.03158186090721337 -0.020717778021646958 -0.026632828564583783 10.42860090970039 0.7531143736887657 0.09082014493958686 -0.013537701739229725 0.05256364174853719 -0.07762459298909245 2.1712567326615813 -0.7369408592601456 -0.21956723644277026 -0.003780402983896276 -0.05436328987312977 0.01868014049316175 -58.723821804370246 32.415183046099244 -25.448885281401065 23.20551306360496 -27.536447223850836 -62.46363724289737 4.897816809468485 -13.396527278614263 4.282385175625425 0.0004210171293078172 0.05893999686471433 -0.017212236790990806 0.004281247949128618 0.040105883630536396 0.00974337157272897 -0.020499532133323894 0.02777877956083854 0.0392023509889642 -7.780288120355388 5.584562875322471 -0.4217543895317819 0.06836133569024777 -0.08992739119029859 -0.019930331915538536 -2.9011294667086744 0.9495683300214921 -0.1290522889012919 0.017349907791448873 -0.04834023696394212 -0.030862609971099297 -10.34856987564806 0.6870900832725729 -0.014921828902362232 -0.02466896241522 -0.0435176431622371 0.0032338811285894747 -2.2748316422263586 -0.6672267725882651 0.18296321214404054 -0.04350259540172192 0.014204979204628237 -0.038715299804204115 -31.56105423001081 -35.66856265722181 -27.120230863755893 -4.830877113620952 62.036606985799004 5.797559336381557 -4.848144258729567 -10.246555023978395 -10.337937832431288 -0.00467094225778958 0.03410382154685463 0.07951855642116938 37.9164018187351 -34.18812598481072 30.652051674130494 5.286054580288941 63.32589398409812 -6.475320288382392 4.97873192613151 -10.037673325007418 13.86201662338168
-0.2574109472334385 73.33015203475952 1.0401647072285414 -31.26378732185893 15.51640199225372 -29.025360161021915 -1.4842250795229237 14.849900180212828 -1.8130348684789803 3.4850028518219256 -8.687110992116825 -0.3379072807653963 -5.413176780460749 13.788084094484523 -0.5053680979276235 4.267243500009153 -28.136916474543337 0.4347916998730289 -0.1295115924425488 0.297232703845177 0.19134925704200137 -0.333560932575741 -0.36759955383046977 0.2879310800931039 -0.2240385290694692 -0.5743560501133671 0.352665051725546 21.007413047174996 24.662269470163622 52.58297289143562 -24.161777113447183 -30.50096788968981 67.74269728258939 2.1552213694810956 0.6835034335455229 0.4303317997884221 -0.26293949796130656 -0.18928145729141968 0.3960995853594058 0.4200783518229107 0.25498510234259203 0.14845843047845841 -0.5439506092494091 0.4275314222287169 -0.08339532910538631 7.443847515992546 5.192510016963739 0.8122132258125356 0.1366534089934434 0.321419230789412 -0.32847510968672605 3.40828445951705 1.5759619905955995 -0.08989195958397915 -0.06429465173059276 -0.12738638975446992 -0.10889263872045547 9.936731666811093 0.6095400620753952 0.34600289588128613 0.01067932093243228 0.0957890275194918 -0.11309188437890427 2.222098739852452 -1.0324575847980628 -0.4274073315653195 -0.18369601673678887 -0.12760837090249533 0.19265220900767388 17.21086093475987 26.388639056472073 -113.31844591582012 26.15380690752328 -36.05942364757038 -78.12879221753751 0.9317519950149253 -18.51103525459599 7.041708175776998 -0.22201700651855696 -0.43276121269883105 -0.012465148596126161 -0.2810756245592474 -0.22543287483593027 -0.12134503407274075 0.35313027832147376 0.086677208321151 -0.26910395713065466 -7.357292797509206 5.472646810677228 -0.5850532469315177 0.01016156057683358 -0.33236666332719367 0.23613247289246103 -2.8336442095011867 0.6396561803949797 -0.16674596849647663 -0.17830043409674326 0.004051796281698501 0.03968774798728468 -9.452705188636262 0.8378604794242278 0.22823087783768187 0.5190628940177635 0.19916772922819 0.32041100415446816 -2.304983939204203 -0.5003671721555577 -0.40942880624639144 0.17583665679707272 -0.438674235529358 0.29883155508034176 7.442182657382356 -51.7829357584791 8.798171575568524 -5.270855701838371 59.66100572076604 5.808554233397985 -2.9101779732550606 0.3823388352550928 -4.494889436177447 -0.2051883275381447 0.2984299079406333 0.01912869182256118 -7.558476019511932 -44.48527819638692 1.6407753631771431 8.413987095133647 69.91392562727724 -11.674898697363448 11.287672221426977 -15.715102440493146 23.251840529197864
0.0486559234559536 73.94078969955444 1.1091186897829175 -4.499411021407995 1.9271707446044783 -3.9068028915633555 -4.364443495200781 16.503413846192043 1.0016071144209961 5.953424253241248 -10.798975601407149 -0.5054740192206116 -5.607396197717824 14.150478563919767 -2.5596340954732 6.1421056677419115 -30.58626329204493 -1.2882152989296596 -0.27043149510929654 0.3081272290973176 -0.02872303987337958 -0.20792387166158768 -0.456157865618151 0.47860981799789365 0.27082799292670107 -0.6342711098429537 0.3016531435790711 4.718694244711254 38.70362893190327 67.45227080889129 -28.114450274815873 -27.57842727403703 65.60225943067996 -4.520683645577999 0.2952819111047714 0.9372202017757553 0.02774294774812242 -0.119663153350478 -0.30626893739539807 -0.4239087005651127 0.12212842475402948 0.030913649626889275 -0.895204719983245 0.4248371260445584 0.5293240793069441 7.561505208408833 5.2868712147815815 0.7596064684948628 0.14531238131372706 -0.3993112950536192 0.07827562207478574 2.9383458868356045 0.5745069546053421 -0.05854176481959085 -0.2983447973802726 0.262412399456452 -0.3293613267315352 11.010461309999192 0.933020809374961 0.3061586671928994 -0.4998149940498445 0.34220859239521184 -0.24783570855058698 2.673018010459762 -0.692107977795858 -0.4698042100538663 -0.3994836772888827 -0.15611192424772213 0.5507190065517744 21.939557991510608 6.549848324397809 -113.1681202823773 27.009829393559098 -38.13103709830817 -85.70158687487073 -0.13763763658479958 -1.4009283612736794 5.511062355890318 -1.1901004852760726 -0.45023315676084097 -0.19263038441884156 -0.7063167989818944 -0.5229934544416943 0.2337959879073613 -0.11457855776107953 0.1282580926472928 -0.5230468152945851 -8.218362793341667 4.251475154536532 -1.214412010018204 0.6221890921705828 -0.5969106687740715 -0.14907869703246018 -3.3912574382464427 0.7450265759378243 0.06444867783246185 -0.08132860991207566 0.0072420282326233635 -0.3950718820131569 -10.512875198774594 1.1270480208399232 0.6361237986553195 0.4768913850914008 0.25320439732077565 0.7437275059741996 -3.0708282914019915 -1.0522279942374877 -0.13086914590094173 -0.5651673112455843 -0.05693133427934878 0.2843869856462342 12.739306839881772 -50.90781094088205 17.575934545897052 -11.91933836115351 63.25700469612937 13.311579362133168 -0.3077319318991031 2.044893110374468 0.5026159052180786 -0.4033009526221264 -0.5758637076509416 -0.1454817486608022 -1.8167963817209534 -53.19553157695904 4.229896025627522 12.932437268853054 78.0835148935295 -15.180139826582945 7.5978008336582805 -17.706568743962716 24.724331984056942
